<?xml version="1.0" encoding="UTF-8"?>
<svg id="_Слой_2" data-name="Слой 2" xmlns="http://www.w3.org/2000/svg" viewBox="0 0 300 64.36">
  <defs>
    <style>
      .cls-1 {
        fill: #efefef;
      }
    </style>
  </defs>
  <g id="_Слой_2-2" data-name="Слой 2">
    <g>
      <path class="cls-1" d="M85.22,63.56h-26.15v-3.96c3.95,0,6.58-.57,7.89-1.72,1.07-.88,1.6-2.69,1.6-5.42V6.48c-4.44,9.78-8.82,19.45-13.14,29.01-4.32,9.56-8.7,19.14-13.13,28.74h-3.45c-4.19-9.34-8.37-18.63-12.52-27.88-4.15-9.25-8.33-18.54-12.52-27.88v44.01c0,2.82.57,4.62,1.73,5.42,1.31,1.14,3.74,1.72,7.28,1.72v3.96H0v-3.96c2.63,0,4.62-.22,5.98-.66,1.36-.44,2.24-1.06,2.65-1.85.57-.88.86-2.42.86-4.62V10.97c0-2.38-.62-4.05-1.85-5.02-1.4-.97-3.7-1.45-6.91-1.45V.4h18.25c3.95,8.55,7.81,17.07,11.59,25.57,3.78,8.5,7.65,17.03,11.59,25.57L65.49.4h19.12v4.1c-2.71,0-4.77.22-6.17.66-.82.44-1.48.93-1.97,1.45-.49.97-.74,2.03-.74,3.17v42.68c0,2.56.45,4.32,1.36,5.29,1.64,1.23,4.36,1.85,8.14,1.85v3.96Z"/>
      <path class="cls-1" d="M165.02,63.56h-29.23v-3.96c4.44,0,7.48-1.01,9.13-3.04.41-.71.72-1.43.92-2.18.21-.75.31-1.74.31-2.97V18.77c-5.26,5.29-10.48,10.55-15.66,15.79-5.18,5.24-10.4,10.51-15.66,15.79v1.98c0,1.67.33,3.09.99,4.23,1.4,2.02,4.48,3.04,9.25,3.04v3.96h-29.23v-3.96c3.86,0,6.74-.62,8.63-1.85,1.73-1.14,2.59-3.26,2.59-6.34V11.89c0-2.82-.82-4.76-2.47-5.81-1.65-1.14-4.56-1.72-8.76-1.72V.4h29.23v3.96c-3.45,0-6.09.57-7.89,1.72-1.56,1.06-2.34,3-2.34,5.81v32.51c5.26-5.29,10.48-10.57,15.66-15.86,5.18-5.29,10.4-10.57,15.66-15.86v-.79c0-2.82-.86-4.76-2.59-5.81-1.89-1.14-4.48-1.72-7.77-1.72V.4h29.23v3.96c-2.71,0-4.87.24-6.48.73-1.6.49-2.78,1.21-3.52,2.18-.66.97-.99,2.51-.99,4.62v39.51c0,3.17.78,5.33,2.34,6.48,1.56,1.14,4.44,1.72,8.63,1.72v3.96Z"/>
      <path class="cls-1" d="M237.79,50.75l1.97,1.59c-.58,1.76-1.19,3.26-1.85,4.49-.66,1.23-1.32,2.33-1.97,3.3-2.06,2.73-5.63,4.23-8.14,4.23-.74,0-1.48-.13-2.22-.4-2.14-.71-3.78-2.11-4.93-4.23-.41-.71-1.05-1.81-1.91-3.3-.86-1.5-1.87-3.39-3.02-5.68-2.55-4.58-5.02-8.46-7.4-11.63-.74-.88-1.4-1.59-1.97-2.11-1.32-1.59-2.55-2.47-3.7-2.64-.33-.09-.78-.13-1.36-.13h-7.15v18.63c0,2.56.62,4.23,1.85,5.02,1.56,1.14,4.85,1.72,9.87,1.72v3.96h-31.2v-3.96c5.01,0,8.18-.57,9.5-1.72,1.4-1.06,2.1-2.73,2.1-5.02V11.89c0-2.82-.7-4.76-2.1-5.81-1.65-1.23-4.81-1.85-9.5-1.85V.4h31.2v3.83c-5.1,0-8.35.62-9.74,1.85-1.32,1.15-1.97,3.08-1.97,5.81v17.71h5.92c.49,0,.97-.02,1.42-.07.45-.04.92-.07,1.42-.07,2.63-.26,4.6-1.63,5.92-4.1.33-.44.68-.92,1.05-1.45s.76-1.19,1.17-1.98c.25-.62.47-1.21.68-1.78.2-.57.43-1.21.68-1.92,1.23-2.82,2.38-5.24,3.45-7.27,1.07-2.03,2.76-4.94,3.08-5.29,2.3-2.99,4.89-4.84,7.77-5.55.25-.09.58-.13.99-.13h2.1c4.93.26,7.4,2.56,7.4,6.87,0,1.23-.29,2.33-.86,3.3-.58.97-1.28,1.81-2.1,2.51-.91.88-1.77,1.32-2.59,1.32-1.81,0-3.41-.75-4.81-2.25-.91-.97-1.93-1.5-3.08-1.59-1.15,0-2.3.62-3.45,1.85-.99,1.06-2.02,2.82-3.08,5.29-.16.53-.37,1.04-.62,1.52-.25.49-.45.99-.62,1.52l-1.11,2.38c-.17.35-.33.68-.49.99-.17.31-.33.64-.49.99-1.56,2.91-3.54,5.24-5.92,7,3.45,2.56,7.36,7.27,11.72,14.14l2.22,3.17c.41.71.9,1.52,1.48,2.44.57.93,1.31,2.05,2.22,3.37,1.4,2.03,2.84,3.04,4.32,3.04,2.63,0,5.26-2.38,7.89-7.14Z"/>
      <path class="cls-1" d="M300,57.35c-3.62,4.67-6.83,7-9.62,7-3.62,0-5.8-2.47-6.54-7.4-5.1,4.93-11.27,7.4-18.5,7.4-5.67,0-9.95-1.28-12.83-3.83-1.48-1.32-2.63-2.93-3.45-4.82-.82-1.89-1.23-4.12-1.23-6.67,0-6.25,3.08-10.13,9.25-14.54.49-.35.99-.68,1.48-.99.49-.31,1.03-.64,1.6-.99,6.49-3.44,14.35-5.82,23.56-7.14v-9.12c0-3.26-.99-6.03-2.96-8.32-.91-1.06-2.02-1.85-3.33-2.38-1.32-.53-2.76-.88-4.32-1.06h-1.73c-.66,0-1.19.05-1.6.13-2.3.26-4.24.97-5.8,2.11-2.96,1.76-4.44,3.75-4.44,5.95v.66c0,6.79-5.43,6.34-5.43,6.34-3.13-.26-4.69-2.2-4.69-5.82,0-6.25,7.52-10.18,7.52-10.18,4.93-2.46,10.44-3.7,16.53-3.7,5.02,0,9.21,1.45,12.58,4.36,3.45,3.44,5.18,8.11,5.18,14.01v34.23c0,1.41.12,2.51.37,3.3.25.97.57,1.67.99,2.11.16.18.37.27.62.27,1.23,0,3-.97,5.3-2.91l1.48,1.98ZM283.72,30.26c-7.07.79-13.44,2.95-19.12,6.48-5.59,3.44-8.39,6.52-8.39,12.16,0,2.82,1.05,5.09,3.15,6.81,2.1,1.72,4.75,2.58,7.96,2.58,2.3,0,4.32-.31,6.04-.93,3.53-.88,6.99-2.86,10.36-5.95v-21.15Z"/>
    </g>
  </g>
</svg>