<svg width="424" height="425" viewBox="0 0 424 425" preserveAspectRatio="none" fill="none" xmlns="http://www.w3.org/2000/svg">
<g clip-path="url(#clip0_139_3)">
<path d="M131.013 126.828H0V132.34H131.013V126.828Z" fill="#EFEFEF"/>
<path d="M423.99 126.828H292.977V132.34H423.99V126.828Z" fill="#EFEFEF"/>
<path d="M219.224 80.966V3.8147e-06L204.787 3.8147e-06V80.966H219.224Z" fill="#EFEFEF"/>
<path d="M219.214 262.019V181.053H204.776V262.019H219.214Z" fill="#EFEFEF"/>
<path d="M292.967 80.966H131.013V181.053H292.967V80.966Z" fill="#EFEFEF"/>
<path d="M120.445 423.887H83.4943V418.28C89.0698 418.28 92.7903 417.464 94.6453 415.853C96.1504 414.613 96.9136 412.059 96.9136 408.201V343.207C90.6386 357.028 84.4483 370.691 78.3534 384.194C72.2586 397.708 66.0683 411.242 59.7933 424.809H54.9174C48.9921 411.613 43.088 398.481 37.2264 385.402C31.3541 372.333 25.4606 359.191 19.5354 345.995V408.179C19.5354 412.165 20.3515 414.719 21.9733 415.832C23.8283 417.453 27.2626 418.259 32.2551 418.259V423.866H0V418.259C3.72052 418.259 6.54005 417.941 8.45861 417.326C10.3772 416.701 11.6279 415.832 12.2109 414.708C13.0271 413.468 13.4299 411.285 13.4299 408.169V349.524C13.4299 346.164 12.5607 343.801 10.8118 342.423C8.8402 341.056 5.58607 340.367 1.04938 340.367V334.58H26.8492C32.4247 346.652 37.8941 358.703 43.2364 370.712C48.5787 382.731 54.0482 394.772 59.6237 406.844L92.5677 334.569H119.587V340.356C115.749 340.356 112.845 340.664 110.874 341.289C109.708 341.914 108.785 342.593 108.086 343.345C107.386 344.712 107.036 346.217 107.036 347.828V408.148C107.036 411.762 107.672 414.253 108.955 415.62C111.276 417.358 115.113 418.238 120.456 418.238V423.845L120.445 423.887Z" fill="#EFEFEF"/>
<path d="M233.227 423.887H191.919V418.28C198.194 418.28 202.487 416.849 204.819 413.988C205.402 412.991 205.837 411.963 206.123 410.903C206.409 409.843 206.558 408.444 206.558 406.695V360.568C199.117 368.041 191.739 375.481 184.415 382.89C177.09 390.299 169.713 397.739 162.272 405.212V408.01C162.272 410.373 162.738 412.366 163.671 413.988C165.642 416.849 169.999 418.28 176.74 418.28V423.887H135.433V418.28C140.892 418.28 144.962 417.411 147.633 415.662C150.071 414.041 151.29 411.062 151.29 406.695V350.86C151.29 346.875 150.124 344.14 147.803 342.646C145.482 341.024 141.358 340.218 135.423 340.218V334.611H176.73V340.218C171.854 340.218 168.133 341.034 165.579 342.646C163.374 344.14 162.272 346.885 162.272 350.86V396.807C169.702 389.334 177.09 381.862 184.415 374.4C191.739 366.928 199.117 359.456 206.558 351.994V350.87C206.558 346.885 205.339 344.151 202.901 342.656C200.229 341.034 196.562 340.229 191.919 340.229V334.622H233.227V340.229C229.389 340.229 226.337 340.579 224.079 341.257C221.811 341.946 220.157 342.974 219.108 344.341C218.175 345.709 217.719 347.892 217.719 350.881V406.717C217.719 411.2 218.821 414.253 221.026 415.864C223.231 417.485 227.301 418.291 233.227 418.291V423.898V423.887Z" fill="#EFEFEF"/>
<path d="M336.065 405.773L338.853 408.01C338.037 410.501 337.168 412.62 336.235 414.359C335.302 416.097 334.369 417.655 333.447 419.033C330.543 422.891 325.487 425.011 321.947 425.011C320.897 425.011 319.858 424.82 318.809 424.449C315.788 423.453 313.467 421.46 311.834 418.471C311.251 417.475 310.35 415.917 309.131 413.797C307.913 411.677 306.492 409.006 304.86 405.763C301.256 399.287 297.769 393.807 294.398 389.324C293.348 388.084 292.416 387.087 291.61 386.335C289.744 384.098 288.006 382.848 286.384 382.604C285.918 382.487 285.282 382.413 284.466 382.413H274.354V408.752C274.354 412.366 275.223 414.73 276.972 415.842C279.177 417.464 283.83 418.27 290.921 418.27V423.876H246.826V418.27C253.907 418.27 258.39 417.453 260.245 415.842C262.217 414.348 263.203 411.984 263.203 408.752V350.86C263.203 346.875 262.217 344.14 260.245 342.645C257.924 340.907 253.451 340.028 246.826 340.028V334.611H290.921V340.028C283.713 340.028 279.124 340.897 277.152 342.645C275.286 344.267 274.364 347.002 274.364 350.86V375.884H282.727C283.427 375.884 284.095 375.852 284.731 375.789C285.367 375.725 286.035 375.693 286.734 375.693C290.455 375.322 293.242 373.393 295.097 369.906C295.564 369.281 296.051 368.603 296.581 367.85C297.111 367.097 297.652 366.165 298.235 365.052C298.585 364.183 298.903 363.345 299.189 362.529C299.475 361.724 299.804 360.823 300.143 359.827C301.881 355.841 303.514 352.418 305.019 349.556C306.524 346.694 308.919 342.582 309.375 342.084C312.629 337.855 316.286 335.237 320.357 334.24C320.706 334.124 321.173 334.06 321.756 334.06H324.713C331.688 334.431 335.175 337.675 335.175 343.769C335.175 345.518 334.762 347.065 333.956 348.443C333.14 349.81 332.154 350.998 330.999 351.994C329.716 353.245 328.497 353.859 327.342 353.859C324.787 353.859 322.519 352.799 320.547 350.69C319.265 349.323 317.813 348.57 316.191 348.454C314.559 348.454 312.937 349.323 311.315 351.072C309.926 352.566 308.464 355.057 306.959 358.544C306.725 359.297 306.439 360.007 306.089 360.696C305.74 361.385 305.453 362.095 305.22 362.847L303.651 366.207C303.418 366.705 303.185 367.172 302.952 367.606C302.719 368.041 302.485 368.507 302.252 369.005C300.047 373.118 297.249 376.414 293.889 378.905C298.765 382.519 304.287 389.175 310.446 398.884L313.583 403.367C314.166 404.364 314.866 405.519 315.672 406.823C316.488 408.126 317.526 409.716 318.809 411.582C320.781 414.443 322.816 415.874 324.915 415.874C328.635 415.874 332.345 412.514 336.065 405.795V405.773Z" fill="#EFEFEF"/>
<path d="M423.99 415.111C418.881 421.704 414.345 425.011 410.391 425.011C405.271 425.011 402.197 421.524 401.148 414.549C393.94 421.524 385.227 425.011 374.998 425.011C366.985 425.011 360.932 423.209 356.873 419.594C354.785 417.729 353.152 415.45 351.997 412.779C350.831 410.108 350.259 406.96 350.259 403.346C350.259 394.507 354.615 389.027 363.328 382.805C364.028 382.307 364.717 381.841 365.416 381.406C366.116 380.972 366.868 380.505 367.685 380.007C376.864 375.153 387.962 371.793 400.978 369.917V357.028C400.978 352.428 399.59 348.507 396.792 345.263C395.509 343.769 393.94 342.645 392.085 341.904C390.22 341.151 388.195 340.664 385.98 340.409H383.542C382.609 340.409 381.856 340.473 381.273 340.6C378.019 340.971 375.285 341.967 373.08 343.589C368.893 346.08 366.805 348.878 366.805 351.994V352.927C366.805 362.519 359.131 361.893 359.131 361.893C354.71 361.522 352.506 358.788 352.506 353.679C352.506 344.85 363.137 339.296 363.137 339.296C370.112 335.809 377.892 334.071 386.499 334.071C393.59 334.071 399.516 336.127 404.275 340.24C409.151 345.094 411.599 351.697 411.599 360.039V408.412C411.599 410.405 411.769 411.963 412.119 413.087C412.469 414.454 412.935 415.45 413.507 416.076C413.741 416.33 414.027 416.447 414.377 416.447C416.115 416.447 418.616 415.079 421.871 412.334L423.959 415.132L423.99 415.111ZM400.978 376.817C390.983 377.94 381.984 380.993 373.96 385.964C366.052 390.818 362.109 395.185 362.109 403.145C362.109 407.13 363.593 410.331 366.55 412.758C369.508 415.185 373.26 416.404 377.797 416.404C381.051 416.404 383.892 415.97 386.34 415.101C391.333 413.85 396.219 411.052 400.978 406.695V376.817Z" fill="#EFEFEF"/>
</g>
<defs>
<clipPath id="clip0_139_3">
<rect width="423.991" height="425" fill="white"/>
</clipPath>
</defs>
</svg>
